<svg width="151" height="53" version="1.1" xmlns="http://www.w3.org/2000/svg" desc="Created with imagetracer.js version 1.2.6" ><path fill="rgb(0,0,0)" stroke="rgb(0,0,0)" stroke-width="1" opacity="0" d="M 0 0 L 16 0.5 L 4 1 L 5.5 4 L 8 4.5 L 8 27 L 0.5 27 L 0 26.5 L 0 0 Z " /><path fill="rgb(0,0,0)" stroke="rgb(0,0,0)" stroke-width="1" opacity="0" d="M 17.5 0 L 45 0.5 L 41 3.5 L 40 10.5 Q 41.3 15.2 48.5 14 L 52 11.5 Q 53.1 8.2 50.5 9 Q 49.8 11.8 45.5 11 Q 42.8 9.8 44 4.5 L 47.5 3 L 52 6 L 52.5 3 L 53 11.5 L 52 14 L 68.5 14 L 69.5 13 L 73.5 14 L 75.5 14 Q 80.3 15.3 81.5 13 Q 83 15.5 88.5 14 L 90.5 13 L 91.5 14 L 99 14 Q 97.1 11.2 98 5 Q 91.6 2.7 94 10.5 L 93 10.5 Q 95.4 2.7 89 5 L 88.5 7 Q 87.8 4.3 83.5 5 Q 81.5 9 79.5 5 L 75.5 6 L 73 5 Q 74.1 2.3 71.5 3 Q 67.7 4.7 68.5 11 Q 69.2 3.8 65.5 1 L 63 2.5 L 60.5 7 Q 59.4 4.3 56 5 L 56.5 0 L 113.5 0 L 113.5 1 L 111 2.5 L 108.5 6 L 106 7.5 L 105 14 L 108 12.5 L 107 10.5 L 108 8 L 114.5 11 L 116 7.5 L 113 6 L 114.5 3 Q 120.5 1.5 122 4.5 L 124.5 9 L 128 10 Q 126.7 6.3 132.5 8 L 135 7 Q 136.5 3.3 133.5 4 L 130 3 L 130.5 0 L 151 0 L 150.5 22 L 143.5 20 L 138 22 Q 137 26.3 140 25.5 L 140 34.5 L 139 37 L 148.5 37 L 149 35.5 L 146 34 L 146.5 26 L 151 27 L 151 52.5 L 150.5 53 L 49.5 53 L 50 51.5 Q 51.1 48.2 48.5 49 Q 47.5 52 42.5 51 L 33.5 44 L 27.5 43 L 25.5 44 L 23.5 43 L 17 47.5 L 22.5 50 L 25.5 49 Q 26.3 51.8 30.5 51 L 34.5 48 L 40 52.5 L 0 53 L 0 38 L 6.5 38 L 8 37.5 Q 7.3 41.3 9.5 42 Q 13.3 42.8 14 40.5 L 14.5 15 L 19.5 16 L 25 11.5 Q 26.8 2.8 21.5 1 Q 16.5 2 17.5 0 Z M 118 12 Q 114 13 115 18 L 119 19 Q 121 18 121 15 L 118 12 Z M 22 20 L 15 21 Q 14 25 17 24 L 18 35 L 23 38 L 28 36 L 29 37 L 35 37 Q 36 33 33 34 L 33 22 L 32 20 L 25 21 Q 24 25 27 25 L 27 33 L 25 34 L 23 33 L 23 22 L 22 20 Z M 65 20 Q 63 23 62 21 Q 53 19 51 25 Q 50 30 53 32 L 51 39 Q 50 43 54 44 L 64 43 L 66 40 L 67 37 L 76 37 L 75 34 L 73 34 L 73 26 L 76 27 L 79 26 Q 80 22 78 21 L 74 22 L 73 20 L 68 22 L 65 20 Z M 100 20 L 94 22 Q 93 26 96 25 L 96 34 L 94 36 L 95 37 L 104 37 L 102 34 L 102 25 L 106 25 L 106 35 L 105 36 L 106 37 L 123 37 L 121 34 L 121 20 L 113 22 Q 112 26 115 25 L 115 35 L 114 35 L 112 34 L 111 24 Q 111 20 107 21 L 105 21 L 100 20 Z M 34 21 L 34 24 L 41 36 L 38 42 Q 37 46 42 44 L 49 27 Q 48 23 51 24 L 51 21 L 44 21 Q 43 25 46 24 L 45 27 Q 46 30 43 29 L 41 25 L 43 24 L 43 21 L 34 21 Z M 84 21 L 79 27 L 80 35 L 85 38 Q 90 39 93 36 L 94 32 Q 91 31 90 34 Q 85 34 84 31 L 85 29 L 94 29 L 93 24 Q 91 20 84 21 Z M 128 21 L 123 27 L 124 35 L 129 38 Q 134 39 137 36 L 138 32 L 134 34 Q 129 34 128 31 L 129 29 L 138 29 L 137 24 Q 135 20 128 21 Z " /><path fill="rgb(0,0,0)" stroke="rgb(0,0,0)" stroke-width="1" opacity="0" d="M 48.5 0 L 54 0.5 L 48.5 1 L 48.5 0 Z " /><path fill="rgb(0,0,0)" stroke="rgb(0,0,0)" stroke-width="1" opacity="0" d="M 120.5 0 L 124 0.5 L 120.5 1 L 120.5 0 Z " /><path fill="rgb(0,0,0)" stroke="rgb(0,0,0)" stroke-width="1" opacity="0" d="M 14 4 Q 17.8 3 19 5.5 L 19 12 L 14 12 L 14 4 Z " /><path fill="rgb(0,0,0)" stroke="rgb(0,0,0)" stroke-width="1" opacity="0" d="M 56.5 8 L 57 11.5 L 56 11.5 L 56.5 8 Z " /><path fill="rgb(0,0,0)" stroke="rgb(0,0,0)" stroke-width="1" opacity="0" d="M 73.5 8 L 74 10.5 L 73 10.5 L 73.5 8 Z " /><path fill="rgb(0,0,0)" stroke="rgb(0,0,0)" stroke-width="1" opacity="0" d="M 89.5 8 L 90 11.5 L 89 11.5 L 89.5 8 Z " /><path fill="rgb(0,0,0)" stroke="rgb(0,0,0)" stroke-width="1" opacity="0" d="M 77.5 10 L 82 10.5 L 77.5 11 L 77.5 10 Z " /><path fill="rgb(0,0,0)" stroke="rgb(0,0,0)" stroke-width="1" opacity="0" d="M 57.5 23 L 60 27.5 L 59 30 L 56 28.5 Q 55 24 57.5 23 Z " /><path fill="rgb(0,0,0)" stroke="rgb(0,0,0)" stroke-width="1" opacity="0" d="M 86.5 23 L 88.5 26 Q 82.7 27.7 84 24 L 86.5 23 Z " /><path fill="rgb(0,0,0)" stroke="rgb(0,0,0)" stroke-width="1" opacity="0" d="M 130.5 23 L 132.5 26 L 128 25.5 L 130.5 23 Z " /><path fill="rgb(0,0,0)" stroke="rgb(0,0,0)" stroke-width="1" opacity="0" d="M 65 25 L 68 25 L 68 33.5 L 65 35.5 L 64.5 34 L 56 34 L 56 32 Q 62.3 33.5 64 29.5 L 65 25 Z " /><path fill="rgb(0,0,0)" stroke="rgb(0,0,0)" stroke-width="1" opacity="0" d="M 55.5 39 L 62 39.5 Q 61 42 56.5 41 L 55.5 39 Z " /><path fill="rgb(131,113,3)" stroke="rgb(131,113,3)" stroke-width="1" opacity="0.12941176470588237" d="M 45.5 0 L 53 1 L 52 6 L 45.5 3 Q 42.9 4.4 43.5 9 L 43 4.5 L 44.5 2 L 41.5 4 L 43.5 1 L 45.5 0 Z M 46 1 L 46 2 L 48 2 L 46 1 Z M 49 2 L 51 5 Q 52 1 49 2 Z " /><path fill="rgb(131,113,3)" stroke="rgb(131,113,3)" stroke-width="1" opacity="0.12941176470588237" d="M 54.5 0 L 56 0 L 56 5 L 58.5 5 Q 60.3 8.8 62 5.5 L 62.5 4 L 64.5 4 Q 67.1 4.7 66 2 L 63.5 3 L 64.5 1 L 67 2.5 L 68 6.5 L 66.5 6 Q 62.8 5.3 62 7.5 L 66 8.5 L 64 9.5 L 66 10 Q 67 13 64 12 Q 65 9 62 10 L 62 13 L 68 13 L 69.5 7 L 70 13 L 74 12.5 L 72 12 L 72 7 L 73.5 7 L 73.5 6 Q 71.3 6.8 72 4.5 L 69 5.5 L 73 3 Q 71.9 5.7 74.5 5 L 76.5 5 Q 80.8 4.3 81.5 7 Q 82.3 4.3 86.5 5 L 89 6.5 L 89 5 L 93 5 L 93.5 11 L 94.5 7 L 95 12 L 92 10.5 Q 93.7 4.7 90 6 L 89 11.5 L 91 11.5 Q 90.5 14.5 97.5 13 L 97 11.5 L 97 6 L 94.5 6 L 94.5 5 L 98 5 L 98 11.5 L 99 14 L 89.5 13 Q 88 15.5 82.5 14 L 80.5 14 Q 75.8 15.3 74.5 13 L 70.5 14 L 68.5 14 L 52.5 14 L 52 12.5 L 50 12.5 L 51 10.5 L 48.5 12 Q 44.8 12.8 44 10.5 L 45.5 11 L 48.5 11 L 52 9 L 53.5 13 L 56 12.5 L 55 8.5 L 58 7 L 58 13 L 60.5 13 L 60 11.5 Q 61 7 58.5 6 Q 52.8 7.8 55 1.5 L 54.5 0 Z M 77 6 Q 73 8 75 13 L 80 13 L 78 12 L 78 11 Q 83 9 82 13 L 89 13 L 88 8 Q 87 5 84 6 L 83 8 L 86 7 Q 87 10 85 9 L 85 10 Q 87 9 86 12 Q 83 13 84 10 L 77 10 L 79 7 L 79 9 Q 82 10 81 8 Q 80 5 77 6 Z M 57 8 L 56 12 L 57 12 L 57 8 Z M 74 8 L 73 11 L 74 11 L 74 8 Z " /><path fill="rgb(131,113,3)" stroke="rgb(131,113,3)" stroke-width="1" opacity="0.12941176470588237" d="M 114.5 0 L 120 0.5 L 114 1.5 L 120 2.5 Q 114.6 1.6 113 4.5 Q 112.3 6.8 114.5 6 L 116 9.5 L 112.5 11 L 107.5 7 L 108 8.5 L 107.5 10 L 106 7.5 L 111 3.5 L 112.5 1 L 114.5 0 Z M 112 2 L 112 4 L 114 3 L 112 2 Z M 112 4 L 111 6 L 109 7 L 111 7 L 112 9 L 113 7 L 112 4 Z M 114 7 L 114 9 L 112 10 L 115 10 Q 116 6 114 7 Z " /><path fill="rgb(131,113,3)" stroke="rgb(131,113,3)" stroke-width="1" opacity="0.12941176470588237" d="M 124.5 0 L 123.5 2 L 121 1.5 L 124.5 0 Z " /><path fill="rgb(131,113,3)" stroke="rgb(131,113,3)" stroke-width="1" opacity="0.12941176470588237" d="M 129.5 0 L 130 3 L 133 3.5 L 127.5 5 L 126.5 3 L 129 1.5 L 129.5 0 Z " /><path fill="rgb(131,113,3)" stroke="rgb(131,113,3)" stroke-width="1" opacity="0.12941176470588237" d="M 121.5 3 L 126.5 9 L 128.5 6 L 133 7.5 L 128 8 Q 129.1 10.7 126.5 10 L 123 7.5 L 121.5 3 Z " /><path fill="rgb(131,113,3)" stroke="rgb(131,113,3)" stroke-width="1" opacity="0.12941176470588237" d="M 134.5 4 L 135 6.5 L 134 6.5 L 134.5 4 Z " /><path fill="rgb(131,113,3)" stroke="rgb(131,113,3)" stroke-width="1" opacity="0.12941176470588237" d="M 40.5 5 Q 39.7 11.3 43.5 13 L 45 13.5 L 43.5 14 Q 38.2 12.2 40.5 5 Z " /><path fill="rgb(131,113,3)" stroke="rgb(131,113,3)" stroke-width="1" opacity="0.12941176470588237" d="M 125.5 5 L 126.5 7 L 125.5 5 Z " /><path fill="rgb(131,113,3)" stroke="rgb(131,113,3)" stroke-width="1" opacity="0.12941176470588237" d="M 105.5 9 L 108 12.5 L 105 14 L 105.5 9 Z " /><path fill="rgb(131,113,3)" stroke="rgb(131,113,3)" stroke-width="1" opacity="0.12941176470588237" d="M 1.5 27 L 8 27.5 L 1.5 28 L 1.5 27 Z " /><path fill="rgb(131,113,3)" stroke="rgb(131,113,3)" stroke-width="1" opacity="0.12941176470588237" d="M 3.5 29 L 4 32 L 7 32.5 L 4 33 L 3.5 35 L 3 33 L 0 32.5 L 3 32 L 3.5 29 Z " /><path fill="rgb(131,113,3)" stroke="rgb(131,113,3)" stroke-width="1" opacity="0.12941176470588237" d="M 1.5 37 L 7 37.5 L 1.5 38 L 1.5 37 Z " /><path fill="rgb(131,113,3)" stroke="rgb(131,113,3)" stroke-width="1" opacity="0.12941176470588237" d="M 23.5 43 L 26 44.5 L 24.5 44 L 23.5 43 Z " /><path fill="rgb(131,113,3)" stroke="rgb(131,113,3)" stroke-width="1" opacity="0.12941176470588237" d="M 27.5 43 L 32 43.5 L 27.5 44 L 27.5 43 Z " /><path fill="rgb(131,113,3)" stroke="rgb(131,113,3)" stroke-width="1" opacity="0.12941176470588237" d="M 21.5 44 L 20.5 46 L 18 47.5 L 20 48.5 L 18.5 49 Q 15 47 19.5 45 L 21.5 44 Z " /><path fill="rgb(131,113,3)" stroke="rgb(131,113,3)" stroke-width="1" opacity="0.12941176470588237" d="M 33.5 44 L 42 50.5 L 40.5 50 L 39 50.5 L 42 52.5 L 40.5 53 L 35 48.5 L 37.5 50 L 39 49.5 L 33.5 44 Z " /><path fill="rgb(131,113,3)" stroke="rgb(131,113,3)" stroke-width="1" opacity="0.12941176470588237" d="M 27.5 45 L 31 45.5 L 27 48.5 Q 26.1 51.5 30.5 50 L 30.5 51 Q 25.4 51.6 24 48.5 L 26 48 L 27.5 45 Z " /><path fill="rgb(131,113,3)" stroke="rgb(131,113,3)" stroke-width="1" opacity="0.12941176470588237" d="M 33.5 48 L 32.5 50 L 33.5 48 Z " /><path fill="rgb(131,113,3)" stroke="rgb(131,113,3)" stroke-width="1" opacity="0.12941176470588237" d="M 48.5 49 Q 51.1 48.2 50 51.5 L 47.5 53 L 47.5 52 Q 49.8 52.8 49 50.5 L 47 50.5 L 48.5 49 Z " /><path fill="rgb(131,113,3)" stroke="rgb(131,113,3)" stroke-width="1" opacity="0.12941176470588237" d="M 43.5 51 L 46 51.5 L 43.5 52 L 43.5 51 Z " /><path fill="rgb(253,253,253)" stroke="rgb(253,253,253)" stroke-width="1" opacity="0.34901960784313724" d="M 5 1 L 20 1.5 L 6.5 2 L 5.5 3 L 5 1 Z " /><path fill="rgb(253,253,253)" stroke="rgb(253,253,253)" stroke-width="1" opacity="0.34901960784313724" d="M 7.5 3 L 9 4.5 L 9 27.5 L 8 27.5 L 8 4.5 L 7.5 3 Z " /><path fill="rgb(253,253,253)" stroke="rgb(253,253,253)" stroke-width="1" opacity="0.34901960784313724" d="M 17.5 3 L 19.5 6 L 17.5 3 Z " /><path fill="rgb(253,253,253)" stroke="rgb(253,253,253)" stroke-width="1" opacity="0.34901960784313724" d="M 23.5 4 L 25 6.5 L 24 6.5 L 23.5 4 Z " /><path fill="rgb(253,253,253)" stroke="rgb(253,253,253)" stroke-width="1" opacity="0.34901960784313724" d="M 19.5 11 L 18.5 13 L 19.5 11 Z " /><path fill="rgb(253,253,253)" stroke="rgb(253,253,253)" stroke-width="1" opacity="0.34901960784313724" d="M 23.5 12 L 22.5 14 L 23.5 12 Z " /><path fill="rgb(253,253,253)" stroke="rgb(253,253,253)" stroke-width="1" opacity="0.34901960784313724" d="M 116.5 14 L 116 15.5 L 118 18.5 L 115 16.5 L 116.5 14 Z " /><path fill="rgb(253,253,253)" stroke="rgb(253,253,253)" stroke-width="1" opacity="0.34901960784313724" d="M 16.5 21 L 22 21.5 L 16.5 22 L 16.5 21 Z " /><path fill="rgb(253,253,253)" stroke="rgb(253,253,253)" stroke-width="1" opacity="0.34901960784313724" d="M 27.5 21 L 32 21.5 L 27.5 22 L 27.5 21 Z " /><path fill="rgb(253,253,253)" stroke="rgb(253,253,253)" stroke-width="1" opacity="0.34901960784313724" d="M 55.5 21 L 60 21.5 L 57.5 23 L 55.5 21 Z " /><path fill="rgb(253,253,253)" stroke="rgb(253,253,253)" stroke-width="1" opacity="0.34901960784313724" d="M 65.5 21 L 66.5 23 L 68.5 22 L 68.5 23 L 66.5 24 L 65.5 21 Z " /><path fill="rgb(253,253,253)" stroke="rgb(253,253,253)" stroke-width="1" opacity="0.34901960784313724" d="M 72.5 21 L 73 23.5 L 72 23.5 L 72.5 21 Z " /><path fill="rgb(253,253,253)" stroke="rgb(253,253,253)" stroke-width="1" opacity="0.34901960784313724" d="M 75.5 21 L 79 23.5 L 78.5 25 L 76.5 22 L 75.5 21 Z " /><path fill="rgb(253,253,253)" stroke="rgb(253,253,253)" stroke-width="1" opacity="0.34901960784313724" d="M 85.5 21 L 89 21.5 L 86.5 23 L 85.5 21 Z " /><path fill="rgb(253,253,253)" stroke="rgb(253,253,253)" stroke-width="1" opacity="0.34901960784313724" d="M 98.5 21 L 101 21.5 L 98.5 22 L 98.5 21 Z " /><path fill="rgb(253,253,253)" stroke="rgb(253,253,253)" stroke-width="1" opacity="0.34901960784313724" d="M 104.5 21 L 108 21.5 L 104.5 22 L 104.5 21 Z " /><path fill="rgb(253,253,253)" stroke="rgb(253,253,253)" stroke-width="1" opacity="0.34901960784313724" d="M 129.5 21 L 133 21.5 L 130.5 23 L 129.5 21 Z " /><path fill="rgb(253,253,253)" stroke="rgb(253,253,253)" stroke-width="1" opacity="0.34901960784313724" d="M 34.5 22 L 35.5 24 L 34.5 22 Z " /><path fill="rgb(253,253,253)" stroke="rgb(253,253,253)" stroke-width="1" opacity="0.34901960784313724" d="M 53.5 22 L 52.5 24 L 53.5 22 Z " /><path fill="rgb(253,253,253)" stroke="rgb(253,253,253)" stroke-width="1" opacity="0.34901960784313724" d="M 83.5 22 Q 86.3 23.3 84 24.5 L 83.5 27 L 83 24.5 L 83.5 22 Z " /><path fill="rgb(253,253,253)" stroke="rgb(253,253,253)" stroke-width="1" opacity="0.34901960784313724" d="M 90.5 22 L 92.5 25 L 90.5 22 Z " /><path fill="rgb(253,253,253)" stroke="rgb(253,253,253)" stroke-width="1" opacity="0.34901960784313724" d="M 127.5 22 Q 130.3 23.3 128 24.5 L 127.5 27 L 127 24.5 L 127.5 22 Z " /><path fill="rgb(253,253,253)" stroke="rgb(253,253,253)" stroke-width="1" opacity="0.34901960784313724" d="M 134.5 22 L 136.5 25 L 134.5 22 Z " /><path fill="rgb(253,253,253)" stroke="rgb(253,253,253)" stroke-width="1" opacity="0.34901960784313724" d="M 146.5 22 L 145.5 24 L 146.5 22 Z " /><path fill="rgb(253,253,253)" stroke="rgb(253,253,253)" stroke-width="1" opacity="0.34901960784313724" d="M 40.5 23 L 43 28.5 L 41 27.5 L 40.5 23 Z " /><path fill="rgb(253,253,253)" stroke="rgb(253,253,253)" stroke-width="1" opacity="0.34901960784313724" d="M 49.5 23 L 49 24.5 L 48.5 26 L 48 24.5 L 49.5 23 Z " /><path fill="rgb(253,253,253)" stroke="rgb(253,253,253)" stroke-width="1" opacity="0.34901960784313724" d="M 105.5 24 L 106.5 26 L 105.5 24 Z " /><path fill="rgb(253,253,253)" stroke="rgb(253,253,253)" stroke-width="1" opacity="0.34901960784313724" d="M 51.5 25 L 52 27.5 L 51 27.5 L 51.5 25 Z " /><path fill="rgb(253,253,253)" stroke="rgb(253,253,253)" stroke-width="1" opacity="0.34901960784313724" d="M 60.5 25 L 61 27.5 L 60 27.5 L 60.5 25 Z " /><path fill="rgb(253,253,253)" stroke="rgb(253,253,253)" stroke-width="1" opacity="0.34901960784313724" d="M 68.5 25 L 69 33.5 L 68 33.5 L 68.5 25 Z " /><path fill="rgb(253,253,253)" stroke="rgb(253,253,253)" stroke-width="1" opacity="0.34901960784313724" d="M 73.5 25 L 75 25.5 L 73 26 L 73 33.5 L 74 34.5 L 72 33.5 Q 70.3 26.8 73.5 25 Z " /><path fill="rgb(253,253,253)" stroke="rgb(253,253,253)" stroke-width="1" opacity="0.34901960784313724" d="M 146.5 25 L 149.5 26 L 151 25.5 L 148.5 27 L 146.5 25 Z " /><path fill="rgb(253,253,253)" stroke="rgb(253,253,253)" stroke-width="1" opacity="0.34901960784313724" d="M 45.5 28 L 47 30.5 L 46 30.5 L 45.5 28 Z " /><path fill="rgb(253,253,253)" stroke="rgb(253,253,253)" stroke-width="1" opacity="0.34901960784313724" d="M 79.5 28 L 80 31.5 L 79 31.5 L 79.5 28 Z " /><path fill="rgb(253,253,253)" stroke="rgb(253,253,253)" stroke-width="1" opacity="0.34901960784313724" d="M 83.5 28 L 84 30.5 L 83 30.5 L 83.5 28 Z " /><path fill="rgb(253,253,253)" stroke="rgb(253,253,253)" stroke-width="1" opacity="0.34901960784313724" d="M 127.5 28 L 128 30.5 L 127 30.5 L 127.5 28 Z " /><path fill="rgb(253,253,253)" stroke="rgb(253,253,253)" stroke-width="1" opacity="0.34901960784313724" d="M 52.5 29 L 54.5 32 L 59.5 29 L 59.5 32 Q 54.1 30.1 55 33.5 L 54 33.5 L 52.5 29 Z " /><path fill="rgb(253,253,253)" stroke="rgb(253,253,253)" stroke-width="1" opacity="0.34901960784313724" d="M 84.5 32 L 85.5 34 L 84.5 32 Z " /><path fill="rgb(253,253,253)" stroke="rgb(253,253,253)" stroke-width="1" opacity="0.34901960784313724" d="M 128.5 32 L 129.5 34 L 128.5 32 Z " /><path fill="rgb(253,253,253)" stroke="rgb(253,253,253)" stroke-width="1" opacity="0.34901960784313724" d="M 52.5 33 L 53 35.5 L 52 35.5 L 52.5 33 Z " /><path fill="rgb(253,253,253)" stroke="rgb(253,253,253)" stroke-width="1" opacity="0.34901960784313724" d="M 91.5 33 Q 94.5 34.5 91.5 36 L 91.5 33 Z " /><path fill="rgb(253,253,253)" stroke="rgb(253,253,253)" stroke-width="1" opacity="0.34901960784313724" d="M 124.5 33 L 129 36.5 L 127.5 37 L 124.5 33 Z " /><path fill="rgb(253,253,253)" stroke="rgb(253,253,253)" stroke-width="1" opacity="0.34901960784313724" d="M 135.5 33 L 138 33.5 L 135 35.5 L 135.5 33 Z " /><path fill="rgb(253,253,253)" stroke="rgb(253,253,253)" stroke-width="1" opacity="0.34901960784313724" d="M 25.5 34 L 26.5 36 L 25.5 34 Z " /><path fill="rgb(253,253,253)" stroke="rgb(253,253,253)" stroke-width="1" opacity="0.34901960784313724" d="M 56.5 34 L 63 34.5 L 56.5 35 L 56.5 34 Z " /><path fill="rgb(253,253,253)" stroke="rgb(253,253,253)" stroke-width="1" opacity="0.34901960784313724" d="M 87.5 34 L 90 34.5 L 87.5 35 L 87.5 34 Z " /><path fill="rgb(253,253,253)" stroke="rgb(253,253,253)" stroke-width="1" opacity="0.34901960784313724" d="M 96.5 34 L 96.5 36 Q 102 37.5 103.5 35 L 104 37 L 95.5 37 L 95 35.5 L 96.5 34 Z " /><path fill="rgb(253,253,253)" stroke="rgb(253,253,253)" stroke-width="1" opacity="0.34901960784313724" d="M 106.5 34 L 106.5 36 L 113 36.5 L 105 37 L 106.5 34 Z " /><path fill="rgb(253,253,253)" stroke="rgb(253,253,253)" stroke-width="1" opacity="0.34901960784313724" d="M 115.5 34 L 115.5 36 L 122 36.5 L 114 37 L 115.5 34 Z " /><path fill="rgb(253,253,253)" stroke="rgb(253,253,253)" stroke-width="1" opacity="0.34901960784313724" d="M 131.5 34 L 134 34.5 L 131.5 35 L 131.5 34 Z " /><path fill="rgb(253,253,253)" stroke="rgb(253,253,253)" stroke-width="1" opacity="0.34901960784313724" d="M 140.5 34 L 140.5 36 Q 146 37.5 147.5 35 L 148 37 L 139.5 37 L 139 35.5 L 140.5 34 Z " /><path fill="rgb(253,253,253)" stroke="rgb(253,253,253)" stroke-width="1" opacity="0.34901960784313724" d="M 21.5 36 L 25 36.5 L 21.5 37 L 21.5 36 Z " /><path fill="rgb(253,253,253)" stroke="rgb(253,253,253)" stroke-width="1" opacity="0.34901960784313724" d="M 28.5 36 L 31 36.5 L 28.5 37 L 28.5 36 Z " /><path fill="rgb(253,253,253)" stroke="rgb(253,253,253)" stroke-width="1" opacity="0.34901960784313724" d="M 67.5 36 L 75 36.5 L 67.5 37 L 67.5 36 Z " /><path fill="rgb(253,253,253)" stroke="rgb(253,253,253)" stroke-width="1" opacity="0.34901960784313724" d="M 53.5 37 L 56 41.5 L 54 40.5 L 53.5 37 Z " /><path fill="rgb(253,253,253)" stroke="rgb(253,253,253)" stroke-width="1" opacity="0.34901960784313724" d="M 61.5 38 L 62.5 40 L 61.5 38 Z " /><path fill="rgb(253,253,253)" stroke="rgb(253,253,253)" stroke-width="1" opacity="0.34901960784313724" d="M 64.5 40 L 63.5 42 L 64.5 40 Z " /><path fill="rgb(253,253,253)" stroke="rgb(253,253,253)" stroke-width="1" opacity="0.34901960784313724" d="M 60.5 41 L 61.5 43 L 60.5 41 Z " /><path fill="rgb(255,255,255)" stroke="rgb(255,255,255)" stroke-width="1" opacity="0.06666666666666667" d="M 4.5 1 L 5 3 L 7 3.5 L 5.5 4 L 4.5 1 Z " /><path fill="rgb(255,255,255)" stroke="rgb(255,255,255)" stroke-width="1" opacity="0.06666666666666667" d="M 20.5 1 L 25 4.5 L 21.5 2 L 20.5 1 Z " /><path fill="rgb(255,255,255)" stroke="rgb(255,255,255)" stroke-width="1" opacity="0.06666666666666667" d="M 14.5 3 L 17 3.5 L 14.5 4 L 14.5 3 Z " /><path fill="rgb(255,255,255)" stroke="rgb(255,255,255)" stroke-width="1" opacity="0.06666666666666667" d="M 13.5 5 L 14 12 L 18 12.5 L 14 13 L 14 40.5 L 12.5 42 Q 8.8 42.8 8 40.5 L 8.5 39 L 9 41 L 13 40.5 L 13.5 5 Z " /><path fill="rgb(255,255,255)" stroke="rgb(255,255,255)" stroke-width="1" opacity="0.06666666666666667" d="M 19.5 6 L 20 10.5 L 19 10.5 L 19.5 6 Z " /><path fill="rgb(255,255,255)" stroke="rgb(255,255,255)" stroke-width="1" opacity="0.06666666666666667" d="M 117.5 12 L 121 14.5 L 120.5 17 L 118.5 13 L 115.5 15 L 117.5 12 Z " /><path fill="rgb(255,255,255)" stroke="rgb(255,255,255)" stroke-width="1" opacity="0.06666666666666667" d="M 15.5 15 L 20 15.5 L 15.5 16 L 15.5 15 Z " /><path fill="rgb(255,255,255)" stroke="rgb(255,255,255)" stroke-width="1" opacity="0.06666666666666667" d="M 115.5 17 L 116.5 19 L 115.5 17 Z " /><path fill="rgb(255,255,255)" stroke="rgb(255,255,255)" stroke-width="1" opacity="0.06666666666666667" d="M 21.5 20 L 23 21.5 L 23 31.5 L 22 31.5 L 22 21.5 L 21.5 20 Z " /><path fill="rgb(255,255,255)" stroke="rgb(255,255,255)" stroke-width="1" opacity="0.06666666666666667" d="M 31.5 20 L 33 21.5 L 33 33.5 L 32 33.5 L 32 21.5 L 31.5 20 Z " /><path fill="rgb(255,255,255)" stroke="rgb(255,255,255)" stroke-width="1" opacity="0.06666666666666667" d="M 64.5 20 L 66 20.5 L 63.5 22 L 64.5 20 Z " /><path fill="rgb(255,255,255)" stroke="rgb(255,255,255)" stroke-width="1" opacity="0.06666666666666667" d="M 99.5 20 L 104 21.5 L 101.5 23 L 101 21 L 99.5 20 Z " /><path fill="rgb(255,255,255)" stroke="rgb(255,255,255)" stroke-width="1" opacity="0.06666666666666667" d="M 118.5 20 L 121 20.5 L 121 33.5 L 123 36.5 L 122 36.5 L 120 33.5 L 120 21 L 116.5 22 L 116.5 21 L 118.5 20 Z " /><path fill="rgb(255,255,255)" stroke="rgb(255,255,255)" stroke-width="1" opacity="0.06666666666666667" d="M 143.5 20 L 148 21.5 L 145.5 23 L 145 21 L 143.5 20 Z " /><path fill="rgb(255,255,255)" stroke="rgb(255,255,255)" stroke-width="1" opacity="0.06666666666666667" d="M 15.5 21 Q 19.5 23.5 18 31.5 L 17 31.5 L 17 24.5 Q 13.8 25.3 15.5 21 Z " /><path fill="rgb(255,255,255)" stroke="rgb(255,255,255)" stroke-width="1" opacity="0.06666666666666667" d="M 25 21 L 27 21.5 Q 24.5 23 28 24.5 L 28 32.5 L 26.5 34 L 27 32.5 L 27 24.5 Q 24 25.3 25 21 Z " /><path fill="rgb(255,255,255)" stroke="rgb(255,255,255)" stroke-width="1" opacity="0.06666666666666667" d="M 34.5 21 L 43 21 L 43 24 L 41 23.5 L 41.5 22 L 34.5 22 L 34.5 21 Z " /><path fill="rgb(255,255,255)" stroke="rgb(255,255,255)" stroke-width="1" opacity="0.06666666666666667" d="M 44.5 21 L 51 21 L 51 23.5 L 51.5 25 L 50 22 L 44.5 22 L 44.5 21 Z " /><path fill="rgb(255,255,255)" stroke="rgb(255,255,255)" stroke-width="1" opacity="0.06666666666666667" d="M 74.5 21 L 73.5 23 L 74.5 21 Z " /><path fill="rgb(255,255,255)" stroke="rgb(255,255,255)" stroke-width="1" opacity="0.06666666666666667" d="M 77.5 21 L 78.5 23 L 77.5 21 Z " /><path fill="rgb(255,255,255)" stroke="rgb(255,255,255)" stroke-width="1" opacity="0.06666666666666667" d="M 83.5 21 L 85 21.5 L 80.5 25 L 83.5 21 Z " /><path fill="rgb(255,255,255)" stroke="rgb(255,255,255)" stroke-width="1" opacity="0.06666666666666667" d="M 108.5 21 L 110.5 24 L 108.5 21 Z " /><path fill="rgb(255,255,255)" stroke="rgb(255,255,255)" stroke-width="1" opacity="0.06666666666666667" d="M 127.5 21 L 129 21.5 L 124.5 25 L 127.5 21 Z " /><path fill="rgb(255,255,255)" stroke="rgb(255,255,255)" stroke-width="1" opacity="0.06666666666666667" d="M 66.5 22 L 66.5 24 L 68 24.5 L 65 25 L 64.5 28 L 64 25.5 L 66.5 22 Z " /><path fill="rgb(255,255,255)" stroke="rgb(255,255,255)" stroke-width="1" opacity="0.06666666666666667" d="M 91.5 22 L 92.5 24 L 91.5 22 Z " /><path fill="rgb(255,255,255)" stroke="rgb(255,255,255)" stroke-width="1" opacity="0.06666666666666667" d="M 94.5 22 Q 98.7 24.8 97 33.5 L 94.5 37 L 93.5 35 L 92 35.5 L 93 33 L 90.5 34 L 91.5 32 Q 95.3 30.8 94 34.5 L 96 33.5 L 96 25.5 L 94 25 L 94 29 L 84.5 29 L 84.5 28 L 92.5 28 L 93 25.5 L 94.5 22 Z " /><path fill="rgb(255,255,255)" stroke="rgb(255,255,255)" stroke-width="1" opacity="0.06666666666666667" d="M 113.5 22 Q 117.7 24.8 116 33.5 L 115 33.5 L 115 25.5 Q 111.8 26.3 113.5 22 Z " /><path fill="rgb(255,255,255)" stroke="rgb(255,255,255)" stroke-width="1" opacity="0.06666666666666667" d="M 135.5 22 L 136.5 24 L 135.5 22 Z " /><path fill="rgb(255,255,255)" stroke="rgb(255,255,255)" stroke-width="1" opacity="0.06666666666666667" d="M 138.5 22 Q 142.7 24.8 141 33.5 L 140 33.5 L 140 25.5 L 138.5 25 L 137 25.5 L 138.5 22 Z " /><path fill="rgb(255,255,255)" stroke="rgb(255,255,255)" stroke-width="1" opacity="0.06666666666666667" d="M 34.5 23 L 35.5 25 L 34.5 23 Z " /><path fill="rgb(255,255,255)" stroke="rgb(255,255,255)" stroke-width="1" opacity="0.06666666666666667" d="M 58.5 23 L 60 25.5 L 59 25.5 L 58.5 23 Z " /><path fill="rgb(255,255,255)" stroke="rgb(255,255,255)" stroke-width="1" opacity="0.06666666666666667" d="M 87.5 23 L 88.5 25 L 87.5 23 Z " /><path fill="rgb(255,255,255)" stroke="rgb(255,255,255)" stroke-width="1" opacity="0.06666666666666667" d="M 129.5 23 L 128.5 25 L 129.5 23 Z " /><path fill="rgb(255,255,255)" stroke="rgb(255,255,255)" stroke-width="1" opacity="0.06666666666666667" d="M 131.5 23 L 132.5 25 L 131.5 23 Z " /><path fill="rgb(255,255,255)" stroke="rgb(255,255,255)" stroke-width="1" opacity="0.06666666666666667" d="M 102.5 24 L 105 24.5 L 102 25 L 102 33.5 L 103 34.5 L 101 33.5 L 101 25.5 L 102.5 24 Z " /><path fill="rgb(255,255,255)" stroke="rgb(255,255,255)" stroke-width="1" opacity="0.06666666666666667" d="M 55.5 25 L 56 27.5 L 55 27.5 L 55.5 25 Z " /><path fill="rgb(255,255,255)" stroke="rgb(255,255,255)" stroke-width="1" opacity="0.06666666666666667" d="M 78.5 25 L 80 27.5 L 79 27.5 L 78.5 25 Z " /><path fill="rgb(255,255,255)" stroke="rgb(255,255,255)" stroke-width="1" opacity="0.06666666666666667" d="M 84.5 26 L 89 26.5 L 84.5 27 L 84.5 26 Z " /><path fill="rgb(255,255,255)" stroke="rgb(255,255,255)" stroke-width="1" opacity="0.06666666666666667" d="M 106.5 26 L 107 33.5 L 106 33.5 L 106.5 26 Z " /><path fill="rgb(255,255,255)" stroke="rgb(255,255,255)" stroke-width="1" opacity="0.06666666666666667" d="M 111.5 26 Q 110.6 33.4 114 36.5 L 113 36.5 Q 109.2 33.4 111.5 26 Z " /><path fill="rgb(255,255,255)" stroke="rgb(255,255,255)" stroke-width="1" opacity="0.06666666666666667" d="M 123.5 26 L 124 28.5 L 123 28.5 L 123.5 26 Z " /><path fill="rgb(255,255,255)" stroke="rgb(255,255,255)" stroke-width="1" opacity="0.06666666666666667" d="M 128.5 26 L 133 26.5 L 128.5 27 L 128.5 26 Z " /><path fill="rgb(255,255,255)" stroke="rgb(255,255,255)" stroke-width="1" opacity="0.06666666666666667" d="M 145.5 26 L 146 34 L 149 35.5 L 148.5 37 L 148 35 L 145 33.5 L 145.5 26 Z " /><path fill="rgb(255,255,255)" stroke="rgb(255,255,255)" stroke-width="1" opacity="0.06666666666666667" d="M 51.5 28 L 53 30.5 L 51 29.5 L 51.5 28 Z " /><path fill="rgb(255,255,255)" stroke="rgb(255,255,255)" stroke-width="1" opacity="0.06666666666666667" d="M 128.5 28 L 138 28.5 L 128.5 29 L 128.5 28 Z " /><path fill="rgb(255,255,255)" stroke="rgb(255,255,255)" stroke-width="1" opacity="0.06666666666666667" d="M 63.5 29 L 61.5 32 L 60 31.5 L 63.5 29 Z " /><path fill="rgb(255,255,255)" stroke="rgb(255,255,255)" stroke-width="1" opacity="0.06666666666666667" d="M 84.5 31 L 86.5 34 L 84.5 31 Z " /><path fill="rgb(255,255,255)" stroke="rgb(255,255,255)" stroke-width="1" opacity="0.06666666666666667" d="M 128.5 31 L 130.5 34 L 128.5 31 Z " /><path fill="rgb(255,255,255)" stroke="rgb(255,255,255)" stroke-width="1" opacity="0.06666666666666667" d="M 18.5 34 L 20.5 37 L 18.5 34 Z " /><path fill="rgb(255,255,255)" stroke="rgb(255,255,255)" stroke-width="1" opacity="0.06666666666666667" d="M 34.5 34 L 35 37 L 31 36.5 L 34 36 L 34.5 34 Z " /><path fill="rgb(255,255,255)" stroke="rgb(255,255,255)" stroke-width="1" opacity="0.06666666666666667" d="M 67.5 34 L 67 35.5 Q 67.8 37.8 65.5 37 L 67.5 34 Z " /><path fill="rgb(255,255,255)" stroke="rgb(255,255,255)" stroke-width="1" opacity="0.06666666666666667" d="M 74.5 34 L 76 36.5 L 75 36.5 L 74.5 34 Z " /><path fill="rgb(255,255,255)" stroke="rgb(255,255,255)" stroke-width="1" opacity="0.06666666666666667" d="M 80.5 34 L 82.5 37 L 80.5 34 Z " /><path fill="rgb(255,255,255)" stroke="rgb(255,255,255)" stroke-width="1" opacity="0.06666666666666667" d="M 124.5 34 L 126.5 37 L 124.5 34 Z " /><path fill="rgb(255,255,255)" stroke="rgb(255,255,255)" stroke-width="1" opacity="0.06666666666666667" d="M 137.5 34 L 136.5 36 L 137.5 34 Z " /><path fill="rgb(255,255,255)" stroke="rgb(255,255,255)" stroke-width="1" opacity="0.06666666666666667" d="M 27.5 35 L 26.5 37 L 25 36.5 L 27.5 35 Z " /><path fill="rgb(255,255,255)" stroke="rgb(255,255,255)" stroke-width="1" opacity="0.06666666666666667" d="M 52.5 36 L 53 37.5 L 51 38.5 L 52.5 36 Z " /><path fill="rgb(255,255,255)" stroke="rgb(255,255,255)" stroke-width="1" opacity="0.06666666666666667" d="M 84.5 37 L 89 37.5 L 84.5 38 L 84.5 37 Z " /><path fill="rgb(255,255,255)" stroke="rgb(255,255,255)" stroke-width="1" opacity="0.06666666666666667" d="M 128.5 37 L 133 37.5 L 128.5 38 L 128.5 37 Z " /><path fill="rgb(255,255,255)" stroke="rgb(255,255,255)" stroke-width="1" opacity="0.06666666666666667" d="M 55.5 38 L 61 38.5 L 55.5 39 L 55.5 38 Z " /><path fill="rgb(255,255,255)" stroke="rgb(255,255,255)" stroke-width="1" opacity="0.06666666666666667" d="M 39.5 40 L 39 41.5 Q 38.2 44.1 41.5 43 L 41.5 44 Q 36.7 45.7 38 41.5 L 39.5 40 Z " /><path fill="rgb(255,255,255)" stroke="rgb(255,255,255)" stroke-width="1" opacity="0.06666666666666667" d="M 55.5 40 L 60 41.5 L 56.5 42 L 55.5 40 Z " /><path fill="rgb(255,255,255)" stroke="rgb(255,255,255)" stroke-width="1" opacity="0.06666666666666667" d="M 51.5 41 Q 52.8 43.8 57 43.5 L 53.5 44 L 51.5 41 Z " /><path fill="rgb(255,255,255)" stroke="rgb(255,255,255)" stroke-width="1" opacity="0.06666666666666667" d="M 64.5 41 L 63.5 43 L 62 42.5 L 64.5 41 Z " /><path fill="rgb(255,255,255)" stroke="rgb(255,255,255)" stroke-width="1" opacity="0.06666666666666667" d="M 58.5 43 L 61 43.5 L 58.5 44 L 58.5 43 Z " /><path fill="rgb(253,253,253)" stroke="rgb(253,253,253)" stroke-width="1" opacity="0.8980392156862745" d="M 6.5 2 L 20.5 2 L 23 3 L 25 8.5 L 21.5 14 L 15 15 Q 13.7 11.7 18.5 13 L 21 8.5 L 17.5 3 Q 13 2.5 13 3.5 L 13 39.5 L 10.5 41 L 9 39.5 L 9 4.5 L 7.5 3 L 6.5 2 Z " /><path fill="rgb(253,253,253)" stroke="rgb(253,253,253)" stroke-width="1" opacity="0.8980392156862745" d="M 117 13 Q 119.7 11.9 119 14.5 L 120 16.5 L 117.5 18 L 116 15.5 L 117 13 Z " /><path fill="rgb(253,253,253)" stroke="rgb(253,253,253)" stroke-width="1" opacity="0.8980392156862745" d="M 64.5 21 L 65 23.5 L 63 30 L 59.5 31 L 60 29.5 L 61 25.5 L 60 23 L 58 22.5 L 60.5 22 L 62.5 23 L 64.5 21 Z " /><path fill="rgb(253,253,253)" stroke="rgb(253,253,253)" stroke-width="1" opacity="0.8980392156862745" d="M 71.5 21 L 72.5 24 L 76.5 22 L 78 26 L 73.5 25 Q 70.3 26.8 72 33.5 L 75 35.5 L 67.5 36 L 69 33.5 Q 71 25.5 67 23.5 L 71.5 21 Z " /><path fill="rgb(253,253,253)" stroke="rgb(253,253,253)" stroke-width="1" opacity="0.8980392156862745" d="M 119.5 21 L 120 35 L 122 35.5 L 115.5 36 L 116 34.5 L 116 24.5 L 114.5 24 L 114.5 23 L 119.5 21 Z " /><path fill="rgb(253,253,253)" stroke="rgb(253,253,253)" stroke-width="1" opacity="0.8980392156862745" d="M 144.5 21 L 145.5 24 L 149.5 22 L 151 24.5 L 148.5 26 L 146.5 25 L 145 26.5 L 145 35 L 147 35.5 L 140.5 36 L 141 34.5 L 141 24.5 L 139.5 24 L 139.5 23 L 144.5 21 Z " /><path fill="rgb(253,253,253)" stroke="rgb(253,253,253)" stroke-width="1" opacity="0.8980392156862745" d="M 16.5 22 L 22 22 L 22 32.5 L 25.5 35 L 28 34 L 28 23.5 L 26.5 23 L 26.5 22 L 32 22 L 32 33.5 L 33.5 36 L 26.5 35 Q 25.3 37.3 20.5 36 Q 16.4 31.9 18 23 L 16.5 22 Z " /><path fill="rgb(253,253,253)" stroke="rgb(253,253,253)" stroke-width="1" opacity="0.8980392156862745" d="M 35.5 22 L 42 22.5 L 40 23 L 43 31 Q 45.7 32.1 45 29.5 L 47 24.5 L 45.5 22 L 50 22.5 L 48 24.5 L 40.5 43 L 39 42.5 L 42 35.5 L 35.5 22 Z " /><path fill="rgb(253,253,253)" stroke="rgb(253,253,253)" stroke-width="1" opacity="0.8980392156862745" d="M 54.5 22 L 57 22.5 Q 54 23.5 55 28.5 L 56.5 31 L 54 32.5 Q 53.3 34.8 55.5 34 Q 57.2 36.8 63.5 35 L 65 36.5 Q 65.8 41.3 62.5 42 L 54.5 43 L 52 42 L 52 38 L 53.5 38 L 53 36.5 L 54 30.5 Q 51 29.5 52 24.5 L 54.5 22 Z M 54 38 L 56 42 Q 62 43 63 40 L 62 38 L 54 38 Z " /><path fill="rgb(253,253,253)" stroke="rgb(253,253,253)" stroke-width="1" opacity="0.8980392156862745" d="M 84.5 22 L 86 22.5 L 83 24.5 L 83 27 L 88.5 27 Q 91.3 25.8 89 24.5 Q 89.8 22.3 87.5 23 L 87.5 22 Q 92.5 21.5 93 25.5 L 93 28 L 83.5 28 L 83 30.5 L 85.5 34 L 89.5 35 L 92.5 33 L 90.5 36 L 85.5 37 L 81 34.5 L 80 26.5 L 82.5 23 L 84.5 22 Z " /><path fill="rgb(253,253,253)" stroke="rgb(253,253,253)" stroke-width="1" opacity="0.8980392156862745" d="M 97.5 22 L 102.5 23 Q 103.8 20.8 108.5 22 Q 112.6 26.1 111 35 L 113 35.5 L 106.5 36 L 107 34.5 L 107 25.5 L 105.5 24 L 101 24 L 101 35 L 103 35.5 L 96.5 36 L 97 34.5 L 97 24.5 L 95.5 24 L 95.5 23 L 97.5 22 Z " /><path fill="rgb(253,253,253)" stroke="rgb(253,253,253)" stroke-width="1" opacity="0.8980392156862745" d="M 128.5 22 L 130 22.5 L 127 24.5 L 127 27 L 134 27 L 133 23 L 131 22.5 L 133.5 22 Q 137.8 23.3 137 28 L 127.5 28 L 127 30.5 L 129.5 34 L 133.5 35 L 136.5 33 L 134.5 36 L 129.5 37 L 124 32.5 Q 122.8 25.3 126.5 23 L 128.5 22 Z " /><path fill="rgb(129,116,7)" stroke="rgb(129,116,7)" stroke-width="1" opacity="0.6705882352941176" d="M 125.5 0 Q 129.9 -1.5 129 1.5 L 126 3.5 L 128.5 5 L 134 4 Q 135.8 8.9 129.5 7 L 128 6.5 L 126.5 9 L 121.5 3 L 114.5 2 L 112 5.5 L 115 7 Q 116.7 11.1 112.5 10 L 111 7 L 107 8 L 106.5 11 L 106 8.5 L 111 6 L 112 2 Q 114.4 0.3 120.5 1 L 123.5 2 L 125.5 0 Z M 113 7 Q 111 10 114 9 L 113 7 Z " /><path fill="rgb(129,116,7)" stroke="rgb(129,116,7)" stroke-width="1" opacity="0.6705882352941176" d="M 45.5 1 L 51 2 L 50.5 5 Q 50 1.5 45.5 2 Q 42 3 43 8.5 L 45.5 12 Q 49.8 12.8 50.5 10 L 51 11.5 L 45.5 14 L 41 10.5 Q 39.5 3.5 43.5 2 L 45.5 1 Z " /><path fill="rgb(129,116,7)" stroke="rgb(129,116,7)" stroke-width="1" opacity="0.6705882352941176" d="M 53 1 L 55 1 L 55 6 L 58.5 6 L 61 12.5 L 58 13 L 58 7.5 L 56.5 7 Q 54.3 7.8 55 11.5 L 55.5 13 L 53 12.5 L 53 1 Z " /><path fill="rgb(129,116,7)" stroke="rgb(129,116,7)" stroke-width="1" opacity="0.6705882352941176" d="M 64.5 2 Q 66.8 1.3 66 3.5 L 66.5 5 L 64.5 4 L 63 4.5 L 64.5 2 Z " /><path fill="rgb(129,116,7)" stroke="rgb(129,116,7)" stroke-width="1" opacity="0.6705882352941176" d="M 71.5 4 L 72 6 L 74 6.5 L 72 7 L 72 12 L 73.5 12 L 73.5 13 Q 67.4 14.8 70 7.5 Q 67.2 5.8 71.5 4 Z " /><path fill="rgb(129,116,7)" stroke="rgb(129,116,7)" stroke-width="1" opacity="0.6705882352941176" d="M 63.5 6 Q 67.3 5.3 68 7.5 L 68 13 L 62 13 Q 60.5 9.2 63.5 10 L 66 8.5 Q 64.8 5.8 63.5 8 L 62 7.5 L 63.5 6 Z M 64 10 Q 63 13 66 12 Q 67 9 64 10 Z " /><path fill="rgb(129,116,7)" stroke="rgb(129,116,7)" stroke-width="1" opacity="0.6705882352941176" d="M 76.5 6 Q 80.3 5.3 81 7.5 Q 81.7 10.1 79 9 Q 80 6 77 7 L 77 12 L 79.5 12 L 79.5 13 Q 72.3 15.3 75 7.5 L 76.5 6 Z " /><path fill="rgb(129,116,7)" stroke="rgb(129,116,7)" stroke-width="1" opacity="0.6705882352941176" d="M 83.5 6 Q 87.3 5.3 88 7.5 L 89 12.5 L 82 13 Q 80.5 9.2 83.5 10 L 86 9 Q 87.1 6.3 84.5 7 L 82.5 8 L 83.5 6 Z M 84 10 Q 83 13 86 12 Q 87 9 84 10 Z " /><path fill="rgb(129,116,7)" stroke="rgb(129,116,7)" stroke-width="1" opacity="0.6705882352941176" d="M 90 6 Q 93.7 4.7 92 10.5 L 95 12 L 94 6.5 L 97 6 L 98 12.5 L 91 13 L 90 6 Z " /><path fill="rgb(129,116,7)" stroke="rgb(129,116,7)" stroke-width="1" opacity="0.6705882352941176" d="M 0.5 27 L 1.5 28 L 9 28 L 9 37 L 1.5 37 L 0 37.5 Q -1.9 31.2 3 33 L 3.5 35 L 4 33 L 7 32.5 L 4 32 L 3.5 29 L 3 32 Q -2.4 33.7 0.5 27 Z " /><path fill="rgb(129,116,7)" stroke="rgb(129,116,7)" stroke-width="1" opacity="0.6705882352941176" d="M 22.5 44 L 25.5 45 Q 27 42.5 32.5 44 Q 36.8 50.2 45.5 52 L 48.5 50 L 49 52 L 42.5 53 L 35.5 48 L 33.5 48 Q 32 51.3 27 50 L 28.5 47 L 31 45.5 L 27.5 45 L 26 48 L 20.5 49 L 18 47.5 L 22.5 44 Z " /></svg>